# xmcd
#
# Track frame offsets: 
#        150
#        16107
#        30357
#        42037
#        57592
#        73760
#        87232
#        104787
#        118492
#        135210
#
# Disc length: 1976 seconds
#
# Revision: 1
# Processed by: cddbd v1.5.2PL0 Copyright (c) Steve Scherf et al.
# Submitted via: ExactAudioCopyFreeDBPlugin 1.0
#
DISCID=8407b60a
DTITLE=Artistes Variés - 10 Grands Succès Country - Artistes Originaux
DYEAR=1997
DGENRE=Country
TTITLE0=André Breton - Un royaume d'amour
TTITLE1=Marie King - Adieu amis
TTITLE2=Léo Benoît - Quand j'étais petit gars
TTITLE3=Marie Eve Chateleine - Jambalaya Medley
TTITLE4=John Starr - Il faut croire en toi (Always on my mind)
TTITLE5=Bobby Hachey - Anita
TTITLE6=Albert Babin - Q'H'in toé
TTITLE7=Gerry Cormier - Guitar and Cadillac
TTITLE8=Gerry Joly - Milles après milles
TTITLE9=John Starr - Les murs de ma prison
EXTD=YEAR: 2001
EXTT0=
EXTT1=
EXTT2=
EXTT3=
EXTT4=
EXTT5=
EXTT6=
EXTT7=
EXTT8=
EXTT9=
PLAYORDER=
